<?xml version="1.0" standalone="no"?>
<!DOCTYPE svg PUBLIC "-//W3C//DTD SVG 20010904//EN"
 "http://www.w3.org/TR/2001/REC-SVG-20010904/DTD/svg10.dtd">
<svg version="1.0" xmlns="http://www.w3.org/2000/svg"
 width="1771.000000pt" height="1771.000000pt" viewBox="0 0 1771.000000 1771.000000"
 preserveAspectRatio="xMidYMid meet">
<metadata>
Created by potrace 1.11, written by Peter Selinger 2001-2013
</metadata>
<g transform="translate(0.000000,1771.000000) scale(0.100000,-0.100000)"
fill="#000000" stroke="none">
<path d="M9098 16865 c-1 -1 -46 -5 -98 -9 -52 -3 -106 -8 -120 -10 -14 -3
-50 -7 -80 -10 -60 -7 -88 -11 -165 -26 -27 -5 -66 -12 -85 -15 -19 -3 -71
-15 -115 -26 -44 -12 -87 -22 -95 -24 -78 -15 -412 -126 -495 -164 -11 -5 -45
-20 -75 -32 -89 -38 -301 -145 -407 -206 -339 -195 -635 -425 -925 -717 -121
-122 -105 -117 -198 -56 -25 16 -56 35 -70 43 -124 70 -169 94 -265 141 -60
29 -128 61 -150 71 -22 9 -49 21 -60 26 -89 39 -389 140 -458 154 -10 2 -27 7
-37 10 -19 6 -42 11 -94 21 -16 2 -32 7 -36 9 -8 5 -282 51 -355 59 -225 27
-720 28 -850 2 -11 -2 -47 -7 -80 -10 -33 -4 -67 -9 -75 -11 -8 -2 -31 -6 -50
-9 -19 -3 -46 -8 -60 -11 -14 -2 -50 -10 -80 -16 -212 -42 -530 -140 -697
-215 -17 -8 -33 -14 -36 -14 -3 0 -71 -31 -151 -69 -631 -303 -1158 -736
-1618 -1331 -120 -156 -242 -344 -385 -595 -42 -74 -193 -378 -193 -389 0 -3
-10 -28 -21 -54 -42 -92 -49 -110 -82 -198 -89 -234 -171 -516 -222 -764 -37
-186 -46 -236 -61 -346 -4 -33 -9 -61 -9 -64 -1 -3 -5 -41 -9 -85 -4 -44 -9
-91 -11 -104 -23 -145 -23 -741 0 -916 2 -16 7 -57 10 -90 3 -33 8 -71 10 -85
3 -14 7 -45 9 -70 3 -25 7 -55 10 -66 2 -12 7 -37 10 -55 3 -19 10 -59 16 -89
6 -30 13 -71 16 -90 12 -74 97 -389 143 -529 94 -284 227 -585 361 -816 35
-60 68 -119 74 -130 65 -117 265 -394 401 -555 82 -97 314 -335 395 -405 484
-421 992 -690 1589 -841 96 -24 183 -44 193 -44 10 0 18 -8 19 -17 1 -30 1
-148 -6 -1588 -12 -2743 -13 -3195 -3 -3195 5 0 127 33 271 74 270 76 334 93
377 100 14 3 72 14 130 25 112 21 280 46 370 56 30 4 66 8 80 11 25 3 64 7
220 19 47 4 99 8 115 10 197 23 1096 23 1245 0 14 -2 75 -6 135 -10 61 -4 117
-8 125 -10 8 -2 51 -6 94 -10 44 -3 93 -8 110 -10 17 -2 59 -7 94 -10 35 -4
73 -8 84 -10 11 -3 46 -7 77 -11 31 -3 63 -8 72 -9 9 -2 40 -6 69 -10 29 -4
62 -9 74 -11 12 -2 37 -7 56 -9 19 -3 51 -8 70 -11 19 -3 46 -8 60 -10 34 -5
119 -21 210 -38 41 -8 91 -18 110 -21 19 -3 96 -19 170 -36 762 -168 1426
-385 2064 -673 170 -78 467 -227 564 -285 29 -17 55 -31 57 -31 20 0 556 -361
667 -449 45 -36 28 -71 170 334 33 94 63 181 68 195 4 14 43 124 85 245 42
121 87 249 99 285 13 36 40 112 60 170 21 58 39 112 41 120 2 8 55 161 118
340 63 179 131 375 152 435 20 61 43 124 51 142 8 17 14 34 14 37 0 3 39 117
86 253 48 137 102 293 121 348 19 55 49 143 68 195 18 52 90 259 160 460 70
201 136 390 147 420 11 30 22 62 24 70 4 15 100 291 134 385 21 58 21 58 155
32 44 -8 105 -18 135 -22 30 -3 62 -8 70 -10 69 -18 549 -26 717 -12 152 12
325 37 447 63 39 9 82 18 96 20 23 5 72 18 230 60 320 87 744 284 1080 503
311 202 638 484 889 766 349 393 660 894 863 1395 64 155 70 171 74 185 1 6
25 78 53 160 45 135 132 454 144 530 3 17 14 80 26 140 28 147 29 157 41 255
6 47 13 101 15 120 27 190 37 605 21 860 -11 171 -12 187 -20 247 -4 26 -9 66
-11 88 -5 56 -45 293 -55 335 -5 19 -12 51 -15 70 -18 103 -99 391 -160 565
-151 432 -322 760 -615 1179 -49 71 -212 268 -302 366 -355 388 -815 722
-1258 914 -36 15 -83 36 -105 46 -69 31 -369 134 -420 145 -5 1 -28 7 -50 13
-22 6 -51 13 -65 15 -14 3 -43 10 -65 15 -46 13 -59 15 -215 41 -216 36 -333
45 -590 46 -192 0 -347 -7 -420 -19 -14 -3 -47 -7 -75 -10 -49 -6 -197 -30
-245 -40 -14 -3 -38 -8 -55 -12 -16 -3 -37 -8 -46 -10 -12 -3 -22 10 -39 48
-164 386 -435 821 -711 1141 -76 89 -340 354 -405 407 -31 25 -63 52 -73 61
-10 9 -67 54 -127 100 -338 257 -703 450 -1099 581 -118 39 -314 93 -378 103
-18 3 -39 8 -48 11 -10 2 -31 6 -48 9 -17 2 -38 6 -48 9 -10 2 -38 7 -63 10
-25 3 -56 8 -70 11 -13 3 -52 7 -86 11 -34 3 -81 8 -105 10 -51 6 -505 14
-511 9z"/>
</g>
</svg>
